# xmcd
#
# Track frame offsets: 
#        225
#        21582
#        49347
#        69482
#        94852
#        129212
#        159052
#        186090
#        224577
#        254280
#        284982
#
# Disc length: 4136 seconds
#
# Revision: 4
# Processed by: cddbd v1.5.1PL2 Copyright (c) Steve Scherf et al.
# Submitted via: ExactAudioCopy v0.95b3
#
DISCID=a710250b
DTITLE=Armia - Duch
DYEAR=1997
DGENRE=Punk Rock
TTITLE0=Inaczej Niz Zwykle
TTITLE1=Sould Side Story
TTITLE2=Bracia Bum
TTITLE3=Pieknoreki
TTITLE4=Bog Jest Miloscia
TTITLE5=Piesnia Moja Jest Pan
TTITLE6=Duch Wieje Przez Swiat
TTITLE7=Piosenka Po Nic
TTITLE8=Marnosc
TTITLE9=Lapacze Wiatru
TTITLE10=On Jest Tu On Zyje
EXTD=
EXTT0=
EXTT1=
EXTT2=
EXTT3=
EXTT4=
EXTT5=
EXTT6=
EXTT7=
EXTT8=
EXTT9=
EXTT10=
PLAYORDER=
